<svg width="19" height="18" viewBox="0 0 19 18" fill="none" xmlns="http://www.w3.org/2000/svg">
<path d="M1.375 3C1.375 1.75736 2.38236 0.75 3.625 0.75H5.875C7.11764 0.75 8.125 1.75736 8.125 3V5.25C8.125 6.49264 7.11764 7.5 5.875 7.5H3.625C2.38236 7.5 1.375 6.49264 1.375 5.25V3Z" stroke="#9295AB" stroke-width="1.5" stroke-linecap="round" stroke-linejoin="round"/>
<path d="M1.375 12.75C1.375 11.5074 2.38236 10.5 3.625 10.5H5.875C7.11764 10.5 8.125 11.5074 8.125 12.75V15C8.125 16.2426 7.11764 17.25 5.875 17.25H3.625C2.38236 17.25 1.375 16.2426 1.375 15V12.75Z" stroke="#9295AB" stroke-width="1.5" stroke-linecap="round" stroke-linejoin="round"/>
<path d="M11.125 3C11.125 1.75736 12.1324 0.75 13.375 0.75H15.625C16.8676 0.75 17.875 1.75736 17.875 3V5.25C17.875 6.49264 16.8676 7.5 15.625 7.5H13.375C12.1324 7.5 11.125 6.49264 11.125 5.25V3Z" stroke="#9295AB" stroke-width="1.5" stroke-linecap="round" stroke-linejoin="round"/>
<path d="M11.125 12.75C11.125 11.5074 12.1324 10.5 13.375 10.5H15.625C16.8676 10.5 17.875 11.5074 17.875 12.75V15C17.875 16.2426 16.8676 17.25 15.625 17.25H13.375C12.1324 17.25 11.125 16.2426 11.125 15V12.75Z" stroke="#9295AB" stroke-width="1.5" stroke-linecap="round" stroke-linejoin="round"/>
</svg>
