<?xml version="1.0" standalone="no"?>
<!DOCTYPE svg PUBLIC "-//W3C//DTD SVG 20010904//EN"
 "http://www.w3.org/TR/2001/REC-SVG-20010904/DTD/svg10.dtd">
<svg version="1.0" xmlns="http://www.w3.org/2000/svg"
 width="512.000000pt" height="512.000000pt" viewBox="0 0 512.000000 512.000000"
 preserveAspectRatio="xMidYMid meet">

<g transform="translate(0.000000,512.000000) scale(0.100000,-0.100000)"
fill="#000000" stroke="none">
<path d="M43 4028 c-11 -13 -26 -33 -32 -45 -8 -16 -11 -296 -11 -1003 0
-1072 -3 -1024 57 -1049 21 -8 129 -11 387 -9 l358 3 29 33 c16 18 29 40 29
48 0 9 36 139 79 288 204 695 285 1022 327 1325 10 65 14 130 10 144 -30 122
-372 220 -952 272 -234 21 -256 20 -281 -7z"/>
<path d="M4695 3829 c-310 -21 -628 -80 -890 -165 -122 -40 -175 -77 -175
-124 0 -14 22 -71 49 -126 143 -288 492 -1244 581 -1593 7 -27 25 -58 45 -78
l33 -33 357 0 c225 0 363 4 376 10 51 28 49 -5 49 1055 0 1071 2 1027 -55
1053 -29 13 -180 14 -370 1z"/>
<path d="M2547 3599 c-122 -18 -258 -104 -438 -276 -122 -118 -186 -200 -246
-320 -37 -75 -46 -102 -47 -150 l-1 -58 40 -20 c57 -27 154 -32 213 -9 51 19
133 91 177 154 30 43 77 70 124 70 17 0 83 23 147 50 118 50 160 58 220 41 19
-5 136 -99 281 -222 137 -118 293 -250 348 -294 244 -196 450 -383 587 -535
37 -40 70 -71 73 -68 12 12 -322 928 -434 1187 l-66 155 -120 41 c-66 23 -230
85 -365 137 -304 118 -373 135 -493 117z"/>
<path d="M1445 3388 c-2 -13 -16 -77 -31 -143 -64 -295 -180 -732 -264 -989
l-39 -119 49 -57 c27 -31 80 -86 117 -121 98 -92 465 -384 781 -622 305 -229
354 -255 492 -264 l75 -5 -182 183 c-135 137 -184 192 -189 215 -13 66 54 133
120 120 23 -5 90 -65 267 -241 129 -129 244 -236 255 -236 48 -4 101 4 127 19
24 15 67 83 67 108 0 5 -115 124 -255 264 -197 197 -256 262 -261 286 -12 66
54 133 120 120 24 -5 99 -75 318 -293 l287 -286 74 5 c65 4 79 9 115 38 22 18
43 39 47 48 4 11 -83 105 -304 326 -193 194 -312 321 -316 337 -4 15 0 42 9
63 18 42 72 71 115 61 16 -4 149 -129 351 -331 291 -289 329 -324 358 -324 72
0 132 58 132 128 0 38 -40 118 -91 182 -92 117 -225 237 -587 530 -112 91
-288 233 -390 316 l-187 152 -30 -16 c-16 -8 -32 -18 -35 -21 -7 -10 -90 -38
-131 -45 -27 -5 -55 -25 -111 -79 -159 -155 -329 -201 -527 -143 -99 29 -145
63 -186 137 -54 98 -37 236 50 408 45 90 135 223 188 279 l31 32 -212 0 c-211
0 -212 0 -217 -22z"/>
</g>
</svg>
