<?xml version="1.0" encoding="UTF-8"?>
<!DOCTYPE svg PUBLIC "-//W3C//DTD SVG 1.1//EN" "http://www.w3.org/Graphics/SVG/1.1/DTD/svg11.dtd">
<svg xmlns="http://www.w3.org/2000/svg" version="1.1" width="512px" height="512px" style="shape-rendering:geometricPrecision; text-rendering:geometricPrecision; image-rendering:optimizeQuality; fill-rule:evenodd; clip-rule:evenodd" xmlns:xlink="http://www.w3.org/1999/xlink">
<g><path style="opacity:0.987" fill="#000000" d="M 260.5,-0.5 C 270.5,-0.5 280.5,-0.5 290.5,-0.5C 343.166,9.3289 375.999,40.3289 389,92.5C 395.829,140.366 380.496,179.366 343,209.5C 337.482,216.887 334.648,225.221 334.5,234.5C 319.833,234.5 305.167,234.5 290.5,234.5C 290.333,202.832 290.5,171.165 291,139.5C 301.067,130.102 310.4,120.102 319,109.5C 319.906,92.6949 312.406,87.1949 296.5,93C 289.652,100.015 282.652,106.848 275.5,113.5C 268.348,106.848 261.348,100.015 254.5,93C 238.594,87.1949 231.094,92.6949 232,109.5C 240.6,120.102 249.933,130.102 260,139.5C 260.5,171.165 260.667,202.832 260.5,234.5C 245.833,234.5 231.167,234.5 216.5,234.5C 216.35,225.215 213.516,216.881 208,209.5C 164.503,173.669 150.837,128.669 167,74.5C 184.428,32.2269 215.594,7.22686 260.5,-0.5 Z"/></g>
<g><path style="opacity:0.946" fill="#000000" d="M 93.5,19.5 C 97.5138,19.3345 101.514,19.5012 105.5,20C 115.997,25.7475 126.33,31.7475 136.5,38C 141.628,45.3754 141.794,52.8754 137,60.5C 131.795,64.3188 125.962,65.4855 119.5,64C 109.003,58.2525 98.6696,52.2525 88.5,46C 83.3722,38.6246 83.2055,31.1246 88,23.5C 90.0153,22.3034 91.8487,20.9701 93.5,19.5 Z"/></g>
<g><path style="opacity:0.946" fill="#000000" d="M 445.5,19.5 C 462.783,18.0758 469.283,25.7425 465,42.5C 463.5,44.6667 461.667,46.5 459.5,48C 450.167,53.3333 440.833,58.6667 431.5,64C 415.333,66.5 408.5,59.6667 411,43.5C 412,41.8333 413,40.1667 414,38.5C 424.481,32.0152 434.981,25.6818 445.5,19.5 Z"/></g>
<g><path style="opacity:0.968" fill="#000000" d="M 79.5,99.5 C 93.504,99.3334 107.504,99.5001 121.5,100C 129.915,104.348 132.748,111.181 130,120.5C 128.5,124.667 125.667,127.5 121.5,129C 107.5,129.667 93.5,129.667 79.5,129C 70.5253,123.848 68.0253,116.348 72,106.5C 74.0147,103.588 76.5147,101.255 79.5,99.5 Z"/></g>
<g><path style="opacity:0.968" fill="#000000" d="M 429.5,99.5 C 443.504,99.3334 457.504,99.5001 471.5,100C 479.915,104.348 482.748,111.181 480,120.5C 478.5,124.667 475.667,127.5 471.5,129C 457.5,129.667 443.5,129.667 429.5,129C 420.525,123.848 418.025,116.348 422,106.5C 424.015,103.588 426.515,101.255 429.5,99.5 Z"/></g>
<g><path style="opacity:0.946" fill="#000000" d="M 119.5,164.5 C 135.654,162.487 142.487,169.487 140,185.5C 139,187.167 138,188.833 137,190.5C 126.747,197.045 116.247,203.212 105.5,209C 89.3333,211.5 82.5,204.667 85,188.5C 86,186.833 87,185.167 88,183.5C 98.4805,177.015 108.981,170.682 119.5,164.5 Z"/></g>
<g><path style="opacity:0.946" fill="#000000" d="M 419.5,164.5 C 423.514,164.334 427.514,164.501 431.5,165C 441.997,170.748 452.33,176.748 462.5,183C 467.399,189.954 467.732,197.121 463.5,204.5C 458.444,209.272 452.444,210.772 445.5,209C 435.003,203.252 424.67,197.252 414.5,191C 409.372,183.625 409.206,176.125 414,168.5C 416.015,167.303 417.849,165.97 419.5,164.5 Z"/></g>
<g><path style="opacity:0.986" fill="#000000" d="M 216.5,264.5 C 255.833,264.5 295.167,264.5 334.5,264.5C 336.76,278.546 333.093,290.713 323.5,301C 318.714,304.726 313.381,307.393 307.5,309C 286.167,309.667 264.833,309.667 243.5,309C 229.342,305.509 220.509,296.676 217,282.5C 216.501,276.509 216.334,270.509 216.5,264.5 Z"/></g>
<g><path style="opacity:0.997" fill="#000000" d="M 61.5,511.5 C 43.8333,511.5 26.1667,511.5 8.5,511.5C 7.01307,510.196 5.3464,509.03 3.5,508C 2.30342,505.985 0.970083,504.151 -0.5,502.5C -0.5,438.5 -0.5,374.5 -0.5,310.5C 1.31481,306.521 4.31481,303.688 8.5,302C 23.1667,301.333 37.8333,301.333 52.5,302C 56.6667,303.5 59.5,306.333 61,310.5C 61.5,377.499 61.6667,444.499 61.5,511.5 Z"/></g>
<g><path style="opacity:0.991" fill="#000000" d="M 511.5,334.5 C 511.5,340.5 511.5,346.5 511.5,352.5C 509.573,357.687 507.073,362.687 504,367.5C 464.803,405.698 425.303,443.531 385.5,481C 364.623,497.775 340.956,507.941 314.5,511.5C 240.167,511.5 165.833,511.5 91.5,511.5C 91.5,450.833 91.5,390.167 91.5,329.5C 102.24,324.466 113.24,319.966 124.5,316C 155.684,308.37 184.684,313.37 211.5,331C 217.024,333.131 222.691,334.798 228.5,336C 262.479,337.253 296.479,337.919 330.5,338C 352.8,346.43 360.966,362.264 355,385.5C 350.25,396.585 342.083,403.751 330.5,407C 295.128,407.033 259.794,407.7 224.5,409C 213.351,416.856 212.685,425.523 222.5,435C 224.788,435.822 227.122,436.489 229.5,437C 260.5,437.667 291.5,437.667 322.5,437C 361.374,432.959 382.708,411.459 386.5,372.5C 385.756,367.142 385.256,361.809 385,356.5C 409.286,338.884 434.12,322.051 459.5,306C 485.484,300.152 502.818,309.652 511.5,334.5 Z"/></g>
</svg>
