<svg width="101" height="40" viewBox="0 0 101 40" fill="none" xmlns="http://www.w3.org/2000/svg">
<path d="M68.1133 40V34.0003H100.33V40H68.1133ZM92.2807 7.99658H78.1818C77 7.99658 76.0565 9.01132 76.1773 10.2044C76.2826 11.242 77.2228 12.0002 78.2724 12.0002H90.2606C90.9495 12.0002 91.6244 12.0669 92.2749 12.2013C94.7333 12.6997 96.8587 14.0785 98.3098 15.998C99.1921 17.1618 99.8231 18.5219 100.128 20.0008C100.257 20.6474 100.325 21.3128 100.325 21.9977C100.325 22.6826 100.257 23.3529 100.128 23.9995C99.3227 27.916 96.2179 31.0001 92.2758 31.7998C91.6253 31.9342 90.9503 32.001 90.2614 32.001H68.1133V23.9995H90.1716C91.2229 23.9995 92.1631 23.2389 92.266 22.1997C92.3843 21.0082 91.4416 20.0008 90.2614 20.0008H78.1818C77.4921 20.0008 76.818 19.934 76.1666 19.8045C73.7083 19.3061 71.5731 17.9176 70.1228 15.998C69.2454 14.8343 68.6194 13.4742 68.3108 12.0002C68.1811 11.3535 68.1133 10.6833 68.1133 9.99837C68.1133 9.31346 68.1811 8.64321 68.3108 7.99658C69.1156 4.07932 72.2196 0.996009 76.1675 0.19627C76.818 0.0667807 77.493 0 78.1818 0H100.33C100.33 4.41648 96.7264 7.99658 92.2807 7.99658ZM64.9473 23.9987C63.5353 26.4313 61.4965 28.4567 59.0528 29.8591C56.6859 31.2192 53.9337 31.9993 51.0036 31.9993H34.8945V0H51.0027C53.9337 0 56.6859 0.780194 59.052 2.14024C61.4957 3.54345 63.5345 5.56886 64.9465 7.99658C66.3202 10.3526 67.1061 13.0866 67.1061 15.998C67.1061 18.9136 66.321 21.6475 64.9473 23.9987ZM51.0027 7.99658H42.9486V23.9995H51.0027C55.4469 23.9995 59.052 20.4178 59.052 15.998C59.0528 11.5832 55.4469 7.99658 51.0027 7.99658ZM24.8325 29.855C22.4655 31.2192 19.7134 32.0002 16.7783 32.0002C13.8433 32.0002 11.0952 31.2192 8.72419 29.8599C3.90868 27.0926 0.670044 21.9212 0.670044 15.998V0H8.72419V15.7879C8.72419 20.2736 12.4191 24.0818 16.9334 23.9971C21.3106 23.9148 24.8325 20.3648 24.8325 15.9972V0H32.8817V15.998C32.8817 21.9212 29.6423 27.0926 24.8325 29.855Z" fill="#008CFF"/>
</svg>
