<svg width="19" height="12" viewBox="0 0 19 12" fill="none" xmlns="http://www.w3.org/2000/svg">
<path fill-rule="evenodd" clip-rule="evenodd" d="M0.125 0.75C0.125 0.335786 0.460786 0 0.875 0H17.375C17.7892 0 18.125 0.335786 18.125 0.75C18.125 1.16421 17.7892 1.5 17.375 1.5H0.875C0.460786 1.5 0.125 1.16421 0.125 0.75ZM0.125 6C0.125 5.58579 0.460786 5.25 0.875 5.25H17.375C17.7892 5.25 18.125 5.58579 18.125 6C18.125 6.41421 17.7892 6.75 17.375 6.75H0.875C0.460786 6.75 0.125 6.41421 0.125 6ZM8.375 11.25C8.375 10.8358 8.71079 10.5 9.125 10.5H17.375C17.7892 10.5 18.125 10.8358 18.125 11.25C18.125 11.6642 17.7892 12 17.375 12H9.125C8.71079 12 8.375 11.6642 8.375 11.25Z" fill="#9295AB"/>
</svg>
