<svg width="174" height="15" viewBox="0 0 174 15" fill="none" xmlns="http://www.w3.org/2000/svg">
<path d="M8.45326 11.1203H6.32864L2.77526 5.7426V11.1203H0.650635V2.40422H2.77526L6.32864 7.8078V2.40422H8.45326V11.1203Z" fill="white"/>
<path d="M10.9443 10.7872C10.4002 10.4985 9.97454 10.084 9.66361 9.54361C9.35269 9.00325 9.19724 8.37776 9.19724 7.65605C9.19724 6.94545 9.3527 6.31626 9.67102 5.7759C9.98564 5.23555 10.415 4.81733 10.9628 4.52864C11.5106 4.23996 12.1214 4.09561 12.8024 4.09561C13.4835 4.09561 14.0942 4.23996 14.6421 4.52864C15.1899 4.81733 15.6192 5.23555 15.9339 5.7759C16.2485 6.31626 16.4039 6.94545 16.4039 7.65605C16.4039 8.36666 16.2448 8.99584 15.9265 9.5362C15.6081 10.0766 15.1714 10.4948 14.6235 10.7835C14.072 11.0722 13.4576 11.2165 12.7802 11.2165C12.0955 11.2202 11.4847 11.0759 10.9443 10.7872ZM13.8129 8.93663C14.0979 8.63684 14.2423 8.21122 14.2423 7.65605C14.2423 7.10089 14.1016 6.67527 13.8277 6.37548C13.5501 6.07939 13.2096 5.92765 12.8024 5.92765C12.3879 5.92765 12.0436 6.07569 11.7697 6.36808C11.4958 6.66046 11.3589 7.08979 11.3589 7.65235C11.3589 8.20751 11.4921 8.63314 11.7623 8.93293C12.0325 9.23271 12.3694 9.38076 12.7728 9.38076C13.18 9.38076 13.5279 9.23271 13.8129 8.93663ZM14.4163 2.41532L11.4218 3.66999V2.20436L14.4163 0.764641V2.41532Z" fill="white"/>
<path d="M18.3658 10.9093C17.892 10.702 17.5219 10.4171 17.2479 10.0581C16.974 9.69905 16.8223 9.29563 16.789 8.8478H18.8877C18.9136 9.08837 19.0246 9.28082 19.2245 9.43257C19.4244 9.58061 19.6687 9.65463 19.9574 9.65463C20.2239 9.65463 20.4275 9.60282 20.5718 9.49919C20.7162 9.39556 20.7902 9.26232 20.7902 9.09577C20.7902 8.89591 20.6866 8.75157 20.4793 8.65534C20.272 8.55911 19.9389 8.45548 19.4725 8.33705C18.9765 8.22231 18.562 8.10018 18.2288 7.97064C17.8957 7.8411 17.6107 7.64125 17.3701 7.36366C17.1295 7.08608 17.0111 6.71227 17.0111 6.23854C17.0111 5.84252 17.1221 5.47981 17.3405 5.15042C17.5589 4.82472 17.8809 4.56565 18.3103 4.37319C18.7396 4.18073 19.243 4.08821 19.8316 4.08821C20.7014 4.08821 21.3862 4.30287 21.8859 4.7359C22.3856 5.16892 22.6743 5.73889 22.7483 6.4495H20.7865C20.7532 6.20893 20.6459 6.02017 20.4682 5.87953C20.2905 5.73889 20.0573 5.66857 19.7649 5.66857C19.5169 5.66857 19.3245 5.71668 19.1949 5.81291C19.0617 5.90914 18.995 6.03868 18.995 6.20523C18.995 6.40508 19.1024 6.55313 19.3134 6.65306C19.5243 6.75299 19.8538 6.85291 20.3016 6.95284C20.8161 7.08608 21.2344 7.21562 21.5564 7.34516C21.8785 7.4747 22.1635 7.68196 22.4078 7.96694C22.6521 8.25192 22.7779 8.63684 22.7853 9.11427C22.7853 9.52139 22.6706 9.8841 22.4448 10.2024C22.2153 10.5207 21.8896 10.7724 21.4639 10.9537C21.0382 11.1351 20.5422 11.2276 19.9796 11.2276C19.3763 11.2202 18.8359 11.1166 18.3658 10.9093Z" fill="white"/>
<path d="M25.9981 5.7685C26.2905 5.23184 26.7014 4.81732 27.227 4.52494C27.7526 4.23625 28.3559 4.09191 29.0333 4.09191C29.9031 4.09191 30.6286 4.32138 31.2135 4.77661C31.7983 5.23184 32.1795 5.87213 32.3609 6.70117H30.0993C29.9105 6.17192 29.5404 5.90544 28.9926 5.90544C28.6039 5.90544 28.293 6.05718 28.0598 6.35697C27.8266 6.65676 27.7119 7.09349 27.7119 7.65605C27.7119 8.21861 27.8266 8.65164 28.0598 8.95513C28.293 9.25862 28.6002 9.40666 28.9926 9.40666C29.5404 9.40666 29.9068 9.14018 30.0993 8.61093H32.3609C32.1795 9.42147 31.7946 10.0618 31.2061 10.5244C30.6175 10.987 29.892 11.2202 29.0333 11.2202C28.3559 11.2202 27.7526 11.0758 27.227 10.7872C26.7014 10.4985 26.2905 10.084 25.9981 9.5436C25.7057 9.00324 25.5576 8.37776 25.5576 7.65605C25.5576 6.93434 25.702 6.30516 25.9981 5.7685Z" fill="white"/>
<path d="M36.1771 4.44722C36.551 4.22885 36.9655 4.11782 37.4208 4.11782V6.36438H36.836C36.3067 6.36438 35.9069 6.47911 35.6441 6.70488C35.3813 6.93064 35.248 7.33036 35.248 7.90403V11.1203H33.1234V4.19184H35.248V5.34658C35.4923 4.96537 35.8033 4.66558 36.1771 4.44722Z" fill="white"/>
<path d="M38.2203 3.14073C37.9834 2.92237 37.865 2.64849 37.865 2.32649C37.865 1.9971 37.9834 1.71952 38.2203 1.50115C38.4572 1.28279 38.7607 1.17176 39.1346 1.17176C39.4973 1.17176 39.7971 1.28279 40.034 1.50115C40.2709 1.71952 40.3893 1.9971 40.3893 2.32649C40.3893 2.64849 40.2709 2.92237 40.034 3.14073C39.7971 3.3591 39.4973 3.47013 39.1346 3.47013C38.7607 3.47013 38.4572 3.3628 38.2203 3.14073ZM40.1895 4.19184V11.1203H38.0648V4.19184H40.1895Z" fill="white"/>
<path d="M41.3369 5.7685C41.6071 5.23184 41.9735 4.81732 42.4362 4.52494C42.8989 4.23625 43.4171 4.09191 43.9871 4.09191C44.4757 4.09191 44.9051 4.19184 45.2715 4.388C45.6417 4.58786 45.923 4.84693 46.1228 5.16893V4.18814H48.2475V11.1166H46.1228V10.1358C45.9156 10.4578 45.6269 10.7205 45.2604 10.9167C44.894 11.1129 44.4646 11.2165 43.976 11.2165C43.4134 11.2165 42.8989 11.0684 42.4362 10.7761C41.9735 10.4837 41.6071 10.0655 41.3369 9.52139C41.0667 8.98104 40.9334 8.35185 40.9334 7.64125C40.9334 6.93064 41.0667 6.30516 41.3369 5.7685ZM45.6861 6.40138C45.3937 6.09419 45.0346 5.94245 44.6127 5.94245C44.1907 5.94245 43.8317 6.09419 43.5393 6.39398C43.2468 6.69377 43.0988 7.11199 43.0988 7.64125C43.0988 8.1705 43.2468 8.59242 43.5393 8.90332C43.8317 9.21421 44.1907 9.36965 44.6127 9.36965C45.0346 9.36965 45.3937 9.21791 45.6861 8.91072C45.9785 8.60353 46.1266 8.1853 46.1266 7.65605C46.1266 7.1268 45.9785 6.70857 45.6861 6.40138Z" fill="white"/>
<path d="M60.3179 4.89875C60.8287 5.4206 61.0804 6.14601 61.0804 7.07128V11.1203H58.9669V7.35997C58.9669 6.91214 58.8484 6.56794 58.6116 6.32366C58.3747 6.07939 58.0489 5.95726 57.6381 5.95726C57.2235 5.95726 56.8978 6.07939 56.6646 6.32366C56.4277 6.56794 56.3093 6.91214 56.3093 7.35997V11.124H54.1957V7.35997C54.1957 6.91214 54.0773 6.56794 53.8404 6.32366C53.6035 6.07939 53.2778 5.95726 52.8669 5.95726C52.4524 5.95726 52.1266 6.07939 51.8934 6.32366C51.6565 6.56794 51.5381 6.91214 51.5381 7.35997V11.124H49.4135V4.19184H51.5381V5.0616C51.7528 4.77291 52.0341 4.54344 52.382 4.37319C52.73 4.20295 53.1223 4.11782 53.5628 4.11782C54.0847 4.11782 54.5511 4.22885 54.9619 4.45462C55.3728 4.67668 55.6911 4.99868 55.9243 5.4095C56.1649 5.02829 56.4906 4.71739 56.9052 4.47682C57.3198 4.23625 57.7713 4.11782 58.2599 4.11782C59.1224 4.11782 59.8071 4.3769 60.3179 4.89875Z" fill="white"/>
<path d="M63.5196 10.7872C62.9792 10.4985 62.5498 10.084 62.2389 9.5436C61.928 9.00694 61.7725 8.37776 61.7725 7.65605C61.7725 6.94544 61.9317 6.31626 62.2463 5.7759C62.5609 5.23554 62.9903 4.81732 63.5381 4.52864C64.0859 4.23995 64.6967 4.09561 65.3777 4.09561C66.0588 4.09561 66.6695 4.23995 67.2174 4.52864C67.7652 4.81732 68.1945 5.23554 68.5092 5.7759C68.8238 6.31626 68.9792 6.94544 68.9792 7.65605C68.9792 8.36665 68.8201 8.99584 68.5018 9.5362C68.1834 10.0766 67.7467 10.4948 67.1988 10.7835C66.651 11.0721 66.0329 11.2165 65.3555 11.2165C64.6745 11.2202 64.0637 11.0758 63.5196 10.7872ZM66.3882 8.93662C66.6732 8.63683 66.8176 8.21121 66.8176 7.65605C66.8176 7.10089 66.6769 6.67526 66.3993 6.37548C66.1217 6.07939 65.7812 5.92765 65.374 5.92765C64.9595 5.92765 64.6152 6.07569 64.3413 6.36807C64.0674 6.66046 63.9305 7.08978 63.9305 7.65235C63.9305 8.20751 64.0637 8.63313 64.3339 8.93292C64.6041 9.23271 64.941 9.38075 65.3444 9.38075C65.759 9.38075 66.1032 9.23271 66.3882 8.93662Z" fill="white"/>
<path d="M70.941 10.9093C70.4673 10.702 70.0971 10.4171 69.8232 10.0581C69.5493 9.69905 69.3975 9.29563 69.3642 8.8478H71.4629C71.4889 9.08837 71.5999 9.28082 71.7998 9.43257C71.9997 9.58061 72.244 9.65463 72.5327 9.65463C72.7992 9.65463 73.0027 9.60282 73.1471 9.49919C73.2915 9.39556 73.3655 9.26232 73.3655 9.09577C73.3655 8.89591 73.2619 8.75157 73.0546 8.65534C72.8473 8.55911 72.5142 8.45548 72.0478 8.33705C71.5518 8.22231 71.1372 8.10018 70.8041 7.97064C70.471 7.8411 70.1859 7.64125 69.9491 7.36366C69.7085 7.08608 69.59 6.71227 69.59 6.23854C69.59 5.84252 69.7011 5.47981 69.9194 5.15042C70.1378 4.82472 70.4599 4.56565 70.8892 4.37319C71.3186 4.18073 71.822 4.08821 72.4105 4.08821C73.2804 4.08821 73.9651 4.30287 74.4648 4.7359C74.9645 5.16892 75.2532 5.73889 75.3273 6.4495H73.3655C73.3322 6.20893 73.2248 6.02017 73.0472 5.87953C72.8695 5.73889 72.6363 5.66857 72.3476 5.66857C72.0996 5.66857 71.9071 5.71668 71.7776 5.81291C71.648 5.90914 71.5777 6.03868 71.5777 6.20523C71.5777 6.40508 71.685 6.55313 71.896 6.65306C72.107 6.75299 72.4364 6.85291 72.8843 6.95284C73.3988 7.08608 73.8171 7.21562 74.1391 7.34516C74.4611 7.4747 74.7461 7.68196 74.9904 7.96694C75.2347 8.25192 75.3606 8.63684 75.368 9.11427C75.368 9.52139 75.2532 9.8841 75.0274 10.2024C74.8016 10.5207 74.4722 10.7724 74.0466 10.9537C73.6209 11.1351 73.1249 11.2276 72.5623 11.2276C71.9515 11.2202 71.4148 11.1166 70.941 10.9093Z" fill="white"/>
<path d="M82.4193 9.32154V11.124H81.3384C80.5685 11.124 79.9689 10.9352 79.5358 10.5577C79.1065 10.1802 78.8918 9.56581 78.8918 8.71456V5.95726H78.0479V4.19554H78.8918V2.50785H81.0164V4.19554H82.4082V5.95726H81.0164V8.74047C81.0164 8.94773 81.0645 9.09578 81.1645 9.1883C81.2644 9.28083 81.4273 9.32524 81.6605 9.32524H82.4193V9.32154Z" fill="white"/>
<path d="M86.2836 4.44722C86.6574 4.22885 87.072 4.11782 87.5273 4.11782V6.36438H86.9424C86.4131 6.36438 86.0134 6.47911 85.7506 6.70488C85.4841 6.93434 85.3545 7.33036 85.3545 7.90403V11.1203H83.2299V4.19184H85.3545V5.34658C85.5988 4.96537 85.9097 4.66558 86.2836 4.44722Z" fill="white"/>
<path d="M88.1491 5.7685C88.4193 5.23184 88.7857 4.81732 89.2484 4.52494C89.7111 4.23625 90.2293 4.09191 90.7993 4.09191C91.2879 4.09191 91.7173 4.19184 92.0837 4.388C92.4502 4.58786 92.7352 4.84693 92.9351 5.16893V4.18814H95.0597V11.1166H92.9351V10.1358C92.7278 10.4578 92.4391 10.7205 92.0726 10.9167C91.7062 11.1166 91.2768 11.2165 90.7882 11.2165C90.2256 11.2165 89.7111 11.0684 89.2484 10.7761C88.7857 10.4837 88.4193 10.0655 88.1491 9.52139C87.8789 8.98104 87.7456 8.35185 87.7456 7.64125C87.7456 6.93064 87.8826 6.30516 88.1491 5.7685ZM92.4983 6.40138C92.2059 6.09419 91.8468 5.94245 91.4249 5.94245C91.0029 5.94245 90.6439 6.09419 90.3514 6.39398C90.059 6.69747 89.911 7.11199 89.911 7.64125C89.911 8.1705 90.059 8.59242 90.3514 8.90332C90.6439 9.21421 91.0029 9.36965 91.4249 9.36965C91.8468 9.36965 92.2059 9.21791 92.4983 8.91072C92.7907 8.60353 92.9388 8.1853 92.9388 7.65605C92.9388 7.1268 92.7907 6.70857 92.4983 6.40138Z" fill="white"/>
<path d="M102.396 4.90615C102.881 5.4317 103.121 6.15341 103.121 7.07498V11.124H101.008V7.35997C101.008 6.89733 100.889 6.53463 100.649 6.27925C100.408 6.02388 100.086 5.89434 99.6791 5.89434C99.2719 5.89434 98.9499 6.02388 98.7093 6.27925C98.4687 6.53463 98.3502 6.89733 98.3502 7.35997V11.124H96.2256V4.19184H98.3502V5.10971C98.5649 4.80252 98.8573 4.56195 99.2201 4.3843C99.5828 4.20665 99.9937 4.11782 100.449 4.11782C101.263 4.11782 101.915 4.3806 102.396 4.90615Z" fill="white"/>
<path d="M105.435 10.9093C104.961 10.702 104.591 10.4171 104.317 10.0581C104.043 9.69905 103.891 9.29563 103.858 8.8478H105.957C105.983 9.08837 106.094 9.28082 106.294 9.43257C106.493 9.58061 106.738 9.65463 107.026 9.65463C107.289 9.65463 107.497 9.60282 107.641 9.49919C107.785 9.39556 107.859 9.26232 107.859 9.09577C107.859 8.89591 107.756 8.75157 107.548 8.65534C107.341 8.55911 107.008 8.45548 106.542 8.33705C106.046 8.22231 105.631 8.10018 105.298 7.97064C104.965 7.8411 104.68 7.64125 104.439 7.36366C104.199 7.08608 104.08 6.71227 104.08 6.23854C104.08 5.84252 104.187 5.47981 104.41 5.15042C104.628 4.82472 104.95 4.56565 105.379 4.37319C105.809 4.18073 106.312 4.08821 106.901 4.08821C107.77 4.08821 108.455 4.30287 108.955 4.7359C109.455 5.16892 109.743 5.73889 109.817 6.4495H107.856C107.822 6.20893 107.715 6.02017 107.537 5.87953C107.36 5.73889 107.126 5.66857 106.834 5.66857C106.586 5.66857 106.394 5.71668 106.264 5.81291C106.131 5.90914 106.064 6.03868 106.064 6.20523C106.064 6.40508 106.171 6.55313 106.382 6.65306C106.593 6.75299 106.923 6.85291 107.371 6.95284C107.885 7.08608 108.303 7.21562 108.625 7.34516C108.948 7.4747 109.233 7.68196 109.477 7.96694C109.721 8.25192 109.847 8.63684 109.854 9.11427C109.854 9.52139 109.74 9.8841 109.514 10.2024C109.284 10.5207 108.959 10.7724 108.533 10.9537C108.107 11.1351 107.611 11.2276 107.049 11.2276C106.445 11.2202 105.905 11.1166 105.435 10.9093Z" fill="white"/>
<path d="M114.266 5.95356H113.123V11.1203H110.998V5.95356H110.228V4.19185H110.998V3.99199C110.998 3.14074 111.242 2.49305 111.731 2.04892C112.22 1.60479 112.938 1.38273 113.882 1.38273C114.037 1.38273 114.155 1.38643 114.229 1.39383V3.19626C113.822 3.17035 113.537 3.22957 113.371 3.37021C113.204 3.51085 113.123 3.76252 113.123 4.12893V4.19185H114.266V5.95356Z" fill="white"/>
<path d="M116.21 10.7872C115.666 10.4985 115.24 10.084 114.929 9.5436C114.618 9.00695 114.463 8.37776 114.463 7.65605C114.463 6.94544 114.618 6.31626 114.936 5.7759C115.251 5.23554 115.68 4.81732 116.228 4.52864C116.776 4.23995 117.387 4.09561 118.064 4.09561C118.741 4.09561 119.356 4.23995 119.904 4.52864C120.452 4.81732 120.881 5.23554 121.196 5.7759C121.51 6.31626 121.669 6.94544 121.669 7.65605C121.669 8.36666 121.51 8.99584 121.192 9.5362C120.874 10.0766 120.437 10.4948 119.889 10.7835C119.337 11.0721 118.723 11.2165 118.046 11.2165C117.368 11.2165 116.75 11.0759 116.21 10.7872ZM119.078 8.93663C119.363 8.63684 119.508 8.21121 119.508 7.65605C119.508 7.10089 119.367 6.67526 119.093 6.37548C118.816 6.07939 118.475 5.92765 118.068 5.92765C117.653 5.92765 117.309 6.07569 117.035 6.36807C116.761 6.66046 116.624 7.08979 116.624 7.65235C116.624 8.20751 116.758 8.63314 117.028 8.93292C117.298 9.23271 117.635 9.38075 118.038 9.38075C118.442 9.38075 118.793 9.23271 119.078 8.93663Z" fill="white"/>
<path d="M125.482 4.44722C125.856 4.22885 126.27 4.11782 126.725 4.11782V6.36438H126.141C125.611 6.36438 125.212 6.47911 124.949 6.70488C124.682 6.93434 124.553 7.33036 124.553 7.90403V11.1203H122.428V4.19184H124.553V5.34658C124.797 4.96537 125.108 4.66558 125.482 4.44722Z" fill="white"/>
<path d="M138.267 4.89875C138.777 5.4206 139.029 6.14601 139.029 7.07128V11.1203H136.916V7.35997C136.916 6.91214 136.797 6.56794 136.56 6.32366C136.323 6.07939 135.998 5.95726 135.587 5.95726C135.176 5.95726 134.847 6.07939 134.613 6.32366C134.376 6.56794 134.258 6.91214 134.258 7.35997V11.124H132.144V7.35997C132.144 6.91214 132.026 6.56794 131.789 6.32366C131.552 6.07939 131.227 5.95726 130.816 5.95726C130.405 5.95726 130.075 6.07939 129.842 6.32366C129.605 6.56794 129.487 6.91214 129.487 7.35997V11.124H127.362V4.19184H129.487V5.0616C129.702 4.77291 129.983 4.54344 130.331 4.37319C130.679 4.20295 131.071 4.11782 131.512 4.11782C132.033 4.11782 132.5 4.22885 132.911 4.45462C133.322 4.67668 133.64 4.99868 133.873 5.4095C134.114 5.02829 134.439 4.71739 134.854 4.47682C135.269 4.23625 135.72 4.11782 136.209 4.11782C137.075 4.11782 137.76 4.3769 138.267 4.89875Z" fill="white"/>
<path d="M140.132 5.7685C140.402 5.23184 140.769 4.81732 141.231 4.52494C141.694 4.23625 142.212 4.09191 142.782 4.09191C143.271 4.09191 143.7 4.19184 144.067 4.388C144.433 4.58786 144.718 4.84693 144.918 5.16893V4.18814H147.043V11.1166H144.918V10.1358C144.711 10.4578 144.422 10.7205 144.056 10.9167C143.689 11.1166 143.26 11.2165 142.771 11.2165C142.209 11.2165 141.694 11.0684 141.231 10.7761C140.769 10.4837 140.402 10.0655 140.132 9.52139C139.862 8.98104 139.729 8.35185 139.729 7.64125C139.729 6.93064 139.862 6.30516 140.132 5.7685ZM144.478 6.40138C144.185 6.09419 143.826 5.94245 143.404 5.94245C142.982 5.94245 142.623 6.09419 142.331 6.39398C142.038 6.69747 141.89 7.11199 141.89 7.64125C141.89 8.1705 142.038 8.59242 142.331 8.90332C142.623 9.21421 142.982 9.36965 143.404 9.36965C143.826 9.36965 144.185 9.21791 144.478 8.91072C144.77 8.60353 144.918 8.1853 144.918 7.65605C144.918 7.1268 144.774 6.70857 144.478 6.40138Z" fill="white"/>
<path d="M152.336 8.61093H154.597C154.438 9.31413 154.124 9.8915 153.654 10.3356C153.183 10.7798 152.595 11.061 151.888 11.1684V11.6273C152.317 11.6273 152.695 11.7457 153.017 11.9826C153.339 12.2195 153.502 12.5711 153.502 13.0448C153.502 13.5186 153.332 13.8739 152.991 14.1181C152.65 14.3624 152.247 14.4845 151.773 14.4845H149.86V13.3187H151.484C151.651 13.3187 151.773 13.2928 151.858 13.2447C151.94 13.1966 151.984 13.1114 151.984 12.9967C151.984 12.882 151.943 12.8006 151.858 12.7561C151.777 12.7117 151.651 12.6895 151.484 12.6895H150.604V11.1758C149.752 11.0425 149.067 10.665 148.553 10.0395C148.038 9.41406 147.783 8.62203 147.783 7.65975C147.783 6.93804 147.931 6.30886 148.223 5.7722C148.516 5.23554 148.927 4.82102 149.452 4.52864C149.978 4.23995 150.581 4.09561 151.259 4.09561C152.129 4.09561 152.854 4.32508 153.439 4.78031C154.024 5.23555 154.405 5.87583 154.59 6.70487H152.328C152.136 6.17562 151.769 5.90914 151.222 5.90914C150.833 5.90914 150.522 6.06088 150.289 6.36067C150.056 6.66416 149.941 7.09719 149.941 7.65975C149.941 8.22232 150.056 8.65534 150.289 8.95883C150.522 9.26232 150.829 9.41036 151.222 9.41036C151.777 9.40666 152.143 9.14389 152.336 8.61093Z" fill="white"/>
<path d="M155.334 5.76851C155.604 5.23185 155.971 4.81733 156.433 4.52494C156.896 4.23626 157.414 4.09192 157.988 4.09192C158.477 4.09192 158.906 4.19184 159.272 4.388C159.642 4.58786 159.924 4.84694 160.124 5.16893V4.18814H162.248V11.1166H160.124V10.1358C159.916 10.4578 159.628 10.7206 159.261 10.9167C158.891 11.1166 158.465 11.2165 157.977 11.2165C157.414 11.2165 156.9 11.0685 156.437 10.7761C155.974 10.4837 155.608 10.0655 155.338 9.5214C155.067 8.98105 154.934 8.35186 154.934 7.64125C154.931 6.93065 155.064 6.30516 155.334 5.76851ZM158.073 1.76764C158.254 1.76764 158.414 1.79354 158.551 1.84906C158.687 1.90458 158.854 1.9823 159.054 2.08963C159.202 2.17105 159.324 2.23397 159.413 2.27098C159.506 2.30799 159.598 2.3265 159.698 2.3265C160.005 2.3265 160.183 2.14144 160.231 1.76764H161.323C161.123 2.99269 160.553 3.60707 159.609 3.60707C159.428 3.60707 159.269 3.58117 159.132 3.52565C158.995 3.47013 158.828 3.39241 158.628 3.28508C158.48 3.20366 158.358 3.14074 158.269 3.10373C158.18 3.06672 158.084 3.04821 157.984 3.04821C157.677 3.04821 157.496 3.23326 157.436 3.60707H156.356C156.559 2.38202 157.129 1.76764 158.073 1.76764ZM159.683 6.40139C159.391 6.0942 159.032 5.94246 158.61 5.94246C158.188 5.94246 157.829 6.0942 157.536 6.39399C157.244 6.69748 157.096 7.112 157.096 7.64125C157.096 8.17051 157.244 8.59243 157.536 8.90332C157.829 9.21421 158.188 9.36966 158.61 9.36966C159.032 9.36966 159.391 9.21792 159.683 8.91073C159.976 8.60354 160.124 8.18531 160.124 7.65606C160.124 7.1268 159.976 6.70858 159.683 6.40139Z" fill="white"/>
<path d="M164.736 10.7872C164.192 10.4985 163.766 10.084 163.455 9.5436C163.144 9.00695 162.989 8.37776 162.989 7.65605C162.989 6.94544 163.144 6.31626 163.462 5.7759C163.777 5.23554 164.206 4.81732 164.754 4.52864C165.302 4.23995 165.913 4.09561 166.59 4.09561C167.267 4.09561 167.882 4.23995 168.43 4.52864C168.977 4.81732 169.407 5.23554 169.721 5.7759C170.036 6.31626 170.195 6.94544 170.195 7.65605C170.195 8.36666 170.036 8.99584 169.718 9.5362C169.399 10.0766 168.963 10.4948 168.415 10.7835C167.863 11.0721 167.249 11.2165 166.572 11.2165C165.894 11.2165 165.28 11.0759 164.736 10.7872ZM167.608 8.93663C167.893 8.63684 168.037 8.21121 168.037 7.65605C168.037 7.10089 167.897 6.67526 167.623 6.37548C167.345 6.07939 167.005 5.92765 166.597 5.92765C166.183 5.92765 165.839 6.07569 165.565 6.36807C165.291 6.66046 165.154 7.08979 165.154 7.65235C165.154 8.20751 165.287 8.63314 165.557 8.93292C165.828 9.23271 166.164 9.38075 166.568 9.38075C166.971 9.38075 167.319 9.23271 167.608 8.93663Z" fill="white"/>
<path d="M171.036 10.8908C170.799 10.6724 170.68 10.3986 170.68 10.0766C170.68 9.74717 170.799 9.46959 171.036 9.24382C171.272 9.02176 171.576 8.90702 171.946 8.90702C172.309 8.90702 172.612 9.01806 172.846 9.24382C173.082 9.46589 173.201 9.74347 173.201 10.0766C173.201 10.3986 173.082 10.6724 172.846 10.8908C172.609 11.1092 172.309 11.2202 171.946 11.2202C171.576 11.2202 171.272 11.1092 171.036 10.8908Z" fill="white"/>
</svg>
