<?xml version="1.0" standalone="no"?>
<!DOCTYPE svg PUBLIC "-//W3C//DTD SVG 20010904//EN"
 "http://www.w3.org/TR/2001/REC-SVG-20010904/DTD/svg10.dtd">
<svg version="1.0" xmlns="http://www.w3.org/2000/svg"
 width="512.000000pt" height="512.000000pt" viewBox="0 0 512.000000 512.000000"
 preserveAspectRatio="xMidYMid meet">

<g transform="translate(0.000000,512.000000) scale(0.100000,-0.100000)"
fill="#000000" stroke="none">
<path d="M4385 4794 c-389 -41 -802 -170 -1260 -394 -583 -285 -1009 -620
-1347 -1060 l-65 -84 -124 3 c-420 9 -719 -129 -955 -441 -132 -176 -243 -436
-296 -697 -21 -102 -21 -114 -8 -139 35 -61 24 -61 512 -9 244 26 446 48 449
47 4 0 9 -44 13 -97 12 -164 6 -154 224 -375 225 -227 232 -232 391 -243 l104
-7 -6 -47 c-44 -378 -89 -842 -84 -864 4 -16 21 -36 40 -47 39 -24 67 -22 253
25 442 112 762 340 919 653 81 163 107 281 111 522 l3 175 78 59 c202 152 415
361 580 568 428 537 766 1278 860 1886 27 179 22 483 -10 526 -7 10 -30 21
-52 27 -45 10 -269 19 -330 13z m-992 -1049 c89 -23 145 -54 212 -117 202
-189 206 -488 10 -685 -262 -262 -706 -139 -800 222 -89 341 237 669 578 580z"/>
<path d="M1045 1753 c-116 -26 -225 -85 -304 -164 -131 -131 -222 -490 -257
-1008 l-6 -104 98 7 c467 32 796 104 957 211 94 62 180 192 213 323 28 111 -4
148 -79 95 -121 -86 -328 -108 -447 -48 -121 60 -191 174 -192 310 0 81 45
234 88 296 28 41 29 52 8 73 -15 16 -39 18 -79 9z"/>
</g>
</svg>
