<svg width="19" height="20" viewBox="0 0 19 20" fill="none" xmlns="http://www.w3.org/2000/svg">
<path d="M12.2319 15.0817C14.1264 14.857 15.9533 14.4116 17.6861 13.7719C16.2493 12.177 15.3748 10.0656 15.3748 7.75V7.04919C15.3749 7.03281 15.375 7.01641 15.375 7C15.375 3.68629 12.6887 1 9.375 1C6.06129 1 3.375 3.68629 3.375 7L3.3748 7.75C3.3748 10.0656 2.50027 12.177 1.06348 13.7719C2.7964 14.4116 4.62343 14.857 6.51814 15.0818M12.2319 15.0817C11.295 15.1928 10.3416 15.25 9.3748 15.25C8.40817 15.25 7.45488 15.1929 6.51814 15.0818M12.2319 15.0817C12.3248 15.3711 12.375 15.6797 12.375 16C12.375 17.6569 11.0319 19 9.375 19C7.71815 19 6.375 17.6569 6.375 16C6.375 15.6797 6.42519 15.3712 6.51814 15.0818" stroke="#9295AB" stroke-width="1.5" stroke-linecap="round" stroke-linejoin="round"/>
</svg>
