<svg width="130" height="13" viewBox="0 0 130 13" fill="none" xmlns="http://www.w3.org/2000/svg">
<path d="M5.7475 1.22465V1.92045H3.41929V9.6076H2.57906V1.92045H0.239746V1.22465H5.7475Z" fill="white"/>
<path d="M12.6174 6.65784H7.18736C7.20956 7.15378 7.33171 7.5757 7.5464 7.92731C7.76108 8.27891 8.04609 8.54539 8.39773 8.72304C8.74937 8.90439 9.13432 8.99322 9.54888 8.99322C10.093 8.99322 10.552 8.85998 10.9221 8.5972C11.2923 8.33443 11.5403 7.97912 11.6587 7.53129H12.547C12.3879 8.17158 12.0437 8.69343 11.5217 9.09685C10.9961 9.50027 10.341 9.70383 9.54888 9.70383C8.93444 9.70383 8.38292 9.56689 7.89433 9.2893C7.40574 9.01172 7.0245 8.62311 6.75059 8.11606C6.47668 7.60901 6.33603 7.01314 6.33603 6.33584C6.33603 5.65484 6.47298 5.06267 6.74318 4.54822C7.01339 4.03377 7.39464 3.64516 7.88323 3.37498C8.37182 3.1048 8.92704 2.96786 9.54888 2.96786C10.1707 2.96786 10.7185 3.1048 11.1849 3.37498C11.6513 3.64516 12.014 4.01156 12.2657 4.4705C12.5174 4.92943 12.6433 5.44018 12.6433 5.99904C12.6396 6.28773 12.6322 6.50609 12.6174 6.65784ZM11.4958 4.72587C11.2923 4.38167 11.0147 4.12259 10.663 3.94494C10.3114 3.77099 9.92643 3.68217 9.51187 3.68217C8.89003 3.68217 8.35701 3.88202 7.91654 4.28174C7.47607 4.68146 7.23178 5.24402 7.18366 5.97314H11.7883C11.7994 5.48829 11.6994 5.07007 11.4958 4.72587Z" fill="white"/>
<path d="M13.8388 4.55562C14.109 4.04857 14.4866 3.65626 14.9678 3.38238C15.4453 3.1048 15.9931 2.96786 16.6112 2.96786C17.4181 2.96786 18.0844 3.16772 18.6063 3.56743C19.1282 3.96715 19.4687 4.51121 19.6205 5.19961H18.721C18.61 4.72957 18.3657 4.35946 17.9956 4.08929C17.6254 3.82281 17.1627 3.68957 16.6112 3.68957C16.1707 3.68957 15.7747 3.7895 15.423 3.98936C15.0714 4.18921 14.7938 4.4853 14.5902 4.88132C14.3866 5.27733 14.283 5.76217 14.283 6.33954C14.283 6.91691 14.3866 7.40175 14.5902 7.80147C14.7938 8.20119 15.0714 8.50097 15.423 8.70083C15.7747 8.90069 16.1707 9.00062 16.6112 9.00062C17.1627 9.00062 17.6254 8.86738 17.9956 8.6009C18.3657 8.33442 18.61 7.96062 18.721 7.47947H19.6205C19.4687 8.14937 19.1282 8.68973 18.6026 9.09685C18.077 9.50397 17.4107 9.70753 16.6112 9.70753C15.9968 9.70753 15.449 9.57059 14.9678 9.293C14.4866 9.01542 14.1127 8.62681 13.8388 8.11976C13.5649 7.61271 13.4317 7.01684 13.4317 6.33954C13.4317 5.65484 13.5686 5.06267 13.8388 4.55562Z" fill="white"/>
<path d="M25.7945 3.66736C26.2905 4.1522 26.5385 4.85171 26.5385 5.77328V9.60759H25.7094V5.8658C25.7094 5.15519 25.5317 4.61114 25.1764 4.23363C24.821 3.85612 24.3361 3.67106 23.718 3.67106C23.085 3.67106 22.5816 3.87092 22.2078 4.27064C21.8302 4.67035 21.6452 5.25883 21.6452 6.03235V9.60389H20.8049V3.06038H21.6452V4.17441C21.8524 3.77469 22.1523 3.4675 22.5446 3.25654C22.937 3.04558 23.3811 2.93825 23.8771 2.93825C24.6581 2.94195 25.2985 3.18252 25.7945 3.66736Z" fill="white"/>
<path d="M29.2442 9.2893C28.7519 9.01172 28.3633 8.62311 28.0819 8.11606C27.8006 7.60901 27.6563 7.01314 27.6563 6.33584C27.6563 5.65484 27.8006 5.06267 28.0893 4.55562C28.3781 4.04857 28.7667 3.65626 29.2627 3.38238C29.7587 3.1048 30.3139 2.96786 30.9284 2.96786C31.5428 2.96786 32.1017 3.1048 32.6014 3.38238C33.1011 3.65996 33.4935 4.04857 33.7748 4.55562C34.0561 5.06267 34.2004 5.65854 34.2004 6.33584C34.2004 7.00574 34.0561 7.59791 33.7674 8.10866C33.4787 8.61941 33.0826 9.01542 32.5792 9.2893C32.0758 9.56689 31.5169 9.70383 30.8987 9.70383C30.2806 9.70383 29.7328 9.56689 29.2442 9.2893ZM32.1017 8.67863C32.4682 8.48247 32.768 8.18638 32.9938 7.79037C33.2233 7.39435 33.3343 6.90951 33.3343 6.33214C33.3343 5.75847 33.2233 5.26993 32.9975 4.87391C32.7717 4.4779 32.4793 4.18181 32.1091 3.98565C31.7427 3.7895 31.3429 3.69327 30.9098 3.69327C30.4768 3.69327 30.077 3.7895 29.7106 3.98565C29.3441 4.18181 29.048 4.4779 28.8296 4.87391C28.6112 5.26993 28.5002 5.75477 28.5002 6.33214C28.5002 6.90951 28.6112 7.39435 28.8296 7.79037C29.048 8.18638 29.3404 8.48247 29.7069 8.67863C30.0696 8.87478 30.4694 8.97101 30.8987 8.97101C31.3355 8.97101 31.7353 8.87478 32.1017 8.67863Z" fill="white"/>
<path d="M36.2141 0.736103V9.60759H35.3739V0.736103H36.2141Z" fill="white"/>
<path d="M38.968 9.2893C38.4757 9.01172 38.087 8.62311 37.8057 8.11606C37.5244 7.60901 37.38 7.01314 37.38 6.33584C37.38 5.65484 37.5244 5.06267 37.8131 4.55562C38.1018 4.04857 38.4905 3.65626 38.9865 3.38238C39.4825 3.1048 40.0377 2.96786 40.6521 2.96786C41.2665 2.96786 41.8255 3.1048 42.3251 3.38238C42.8248 3.65996 43.2172 4.04857 43.4985 4.55562C43.7798 5.06267 43.9242 5.65854 43.9242 6.33584C43.9242 7.00574 43.7798 7.59791 43.4911 8.10866C43.2024 8.61941 42.8063 9.01542 42.3029 9.2893C41.7995 9.56689 41.2406 9.70383 40.6225 9.70383C40.0044 9.70383 39.4602 9.56689 38.968 9.2893ZM41.8292 8.67863C42.1956 8.48247 42.4954 8.18638 42.7212 7.79037C42.9507 7.39435 43.0617 6.90951 43.0617 6.33214C43.0617 5.75847 42.9507 5.26993 42.7249 4.87391C42.4991 4.4779 42.2067 4.18181 41.8366 3.98565C41.4701 3.7895 41.0704 3.69327 40.6373 3.69327C40.2042 3.69327 39.8045 3.7895 39.438 3.98565C39.0716 4.18181 38.7755 4.4779 38.5571 4.87391C38.3387 5.26993 38.2277 5.75477 38.2277 6.33214C38.2277 6.90951 38.3387 7.39435 38.5571 7.79037C38.7755 8.18638 39.0679 8.48247 39.4343 8.67863C39.7971 8.87478 40.1968 8.97101 40.6262 8.97101C41.0593 8.97101 41.459 8.87478 41.8292 8.67863Z" fill="white"/>
<path d="M49.4541 3.39718C49.9094 3.68587 50.2388 4.04857 50.4387 4.489V3.06039H51.2789V9.77415C51.2789 10.3737 51.1494 10.9067 50.8903 11.3693C50.6312 11.8319 50.2684 12.191 49.8057 12.4426C49.3431 12.6943 48.8137 12.8201 48.2215 12.8201C47.3813 12.8201 46.6854 12.6203 46.1302 12.2206C45.575 11.8208 45.2307 11.2768 45.0938 10.5884H45.9229C46.0673 11.0436 46.3412 11.4063 46.7446 11.6802C47.1481 11.9504 47.6404 12.0873 48.2252 12.0873C48.6472 12.0873 49.0284 11.9985 49.3653 11.8171C49.7021 11.6358 49.9649 11.373 50.1574 11.0214C50.3498 10.6698 50.4461 10.2553 50.4461 9.77415V8.15677C50.2388 8.6046 49.9094 8.97471 49.4578 9.2671C49.0062 9.55948 48.4732 9.70383 47.8588 9.70383C47.2591 9.70383 46.7224 9.56319 46.2449 9.2856C45.7675 9.00432 45.3973 8.60831 45.1308 8.09756C44.8643 7.58681 44.7274 6.99463 44.7274 6.32474C44.7274 5.65484 44.8606 5.06267 45.1308 4.55562C45.3973 4.04857 45.7712 3.65626 46.2449 3.38238C46.7187 3.1048 47.2591 2.96786 47.8588 2.96786C48.4621 2.96416 48.9988 3.1085 49.4541 3.39718ZM50.1129 4.94424C49.8983 4.54452 49.6021 4.23733 49.232 4.02267C48.8619 3.808 48.451 3.70067 48.0031 3.70067C47.5405 3.70067 47.1222 3.8043 46.7557 4.01156C46.3893 4.21882 46.0969 4.52231 45.8859 4.91833C45.6749 5.31434 45.5676 5.78438 45.5676 6.32844C45.5676 6.8651 45.6749 7.33513 45.8859 7.73855C46.0969 8.14197 46.3856 8.44916 46.7557 8.66012C47.1222 8.87108 47.5405 8.97842 48.0031 8.97842C48.451 8.97842 48.8619 8.87108 49.232 8.65272C49.6021 8.43436 49.8983 8.13087 50.1129 7.73115C50.3276 7.33143 50.4387 6.8688 50.4387 6.33954C50.4387 5.80659 50.3276 5.34395 50.1129 4.94424Z" fill="white"/>
<path d="M52.8224 1.64657C52.704 1.52814 52.6411 1.38009 52.6411 1.20244C52.6411 1.02479 52.7003 0.880449 52.8224 0.765715C52.9409 0.650982 53.0852 0.591764 53.2555 0.591764C53.4258 0.591764 53.5664 0.650982 53.6885 0.765715C53.807 0.880449 53.8699 1.02849 53.8699 1.20244C53.8699 1.37639 53.8107 1.52444 53.6885 1.64657C53.5701 1.76501 53.4258 1.82793 53.2555 1.82793C53.0852 1.82793 52.9446 1.76501 52.8224 1.64657ZM53.6737 3.06039V9.6076H52.8335V3.06039H53.6737Z" fill="white"/>
<path d="M55.2395 4.55562C55.506 4.04857 55.8798 3.65626 56.3536 3.38238C56.8274 3.1085 57.3678 2.96786 57.9674 2.96786C58.593 2.96786 59.1297 3.1122 59.5813 3.40088C60.0328 3.68957 60.3586 4.05598 60.5584 4.50381V3.06038H61.3987V9.6076H60.5584V8.15677C60.3512 8.6046 60.0217 8.97471 59.5702 9.2671C59.1186 9.55948 58.5819 9.70383 57.9563 9.70383C57.3641 9.70383 56.8311 9.56318 56.3573 9.2856C55.8835 9.00802 55.5097 8.6083 55.2432 8.09756C54.9767 7.58681 54.8397 6.99463 54.8397 6.32474C54.836 5.65114 54.973 5.06267 55.2395 4.55562ZM60.2327 4.94423C60.018 4.54452 59.7219 4.23733 59.3518 4.02267C58.9816 3.808 58.5708 3.70067 58.1229 3.70067C57.6602 3.70067 57.2419 3.8043 56.8755 4.01156C56.5091 4.21882 56.2166 4.52231 56.0057 4.91833C55.7947 5.31434 55.6873 5.78438 55.6873 6.32844C55.6873 6.8651 55.7947 7.33513 56.0057 7.73855C56.2166 8.14197 56.5091 8.44916 56.8755 8.66012C57.2419 8.87108 57.6602 8.97841 58.1229 8.97841C58.5708 8.97841 58.9816 8.87108 59.3518 8.65272C59.7219 8.43435 60.018 8.13087 60.2327 7.73115C60.4474 7.33143 60.5584 6.8688 60.5584 6.33954C60.5584 5.80659 60.4511 5.34395 60.2327 4.94423Z" fill="white"/>
<path d="M66.9731 3.76729V7.83108C66.9731 8.23079 67.0508 8.50837 67.2026 8.66012C67.3543 8.81186 67.6208 8.88959 68.0058 8.88959H68.772V9.60759H67.8725C67.2803 9.60759 66.8398 9.47066 66.5548 9.19307C66.2661 8.91549 66.1218 8.46396 66.1218 7.83108V3.76729H65.2112V3.06038H66.1218V1.4171H66.9731V3.06038H68.772V3.76729H66.9731Z" fill="white"/>
<path d="M71.4741 3.27505C71.8553 3.05298 72.318 2.93825 72.8695 2.93825V3.8117H72.64C72.033 3.8117 71.5444 3.97455 71.1779 4.30395C70.8115 4.63334 70.6264 5.1774 70.6264 5.94723V9.60389H69.7862V3.06038H70.6264V4.22252C70.8115 3.8154 71.0965 3.50081 71.4741 3.27505Z" fill="white"/>
<path d="M73.7912 4.55562C74.0577 4.04857 74.4315 3.65626 74.9053 3.38238C75.3791 3.1085 75.9195 2.96786 76.5191 2.96786C77.1447 2.96786 77.6814 3.1122 78.1329 3.40088C78.5845 3.68957 78.9102 4.05598 79.1101 4.50381V3.06038H79.9504V9.6076H79.1101V8.15677C78.9028 8.6046 78.5734 8.97471 78.1218 9.2671C77.6703 9.55948 77.1336 9.70383 76.508 9.70383C75.9158 9.70383 75.3828 9.56318 74.909 9.2856C74.4352 9.00802 74.0614 8.6083 73.7949 8.09756C73.5284 7.58681 73.3914 6.99463 73.3914 6.32474C73.3877 5.65114 73.5209 5.06267 73.7912 4.55562ZM78.7844 4.94423C78.5697 4.54452 78.2736 4.23733 77.9035 4.02267C77.5333 3.808 77.1225 3.70067 76.6746 3.70067C76.2119 3.70067 75.7936 3.8043 75.4272 4.01156C75.0608 4.21882 74.7683 4.52231 74.5574 4.91833C74.3464 5.31434 74.239 5.78438 74.239 6.32844C74.239 6.8651 74.3464 7.33513 74.5574 7.73855C74.7683 8.14197 75.0608 8.44916 75.4272 8.66012C75.7936 8.87108 76.2119 8.97841 76.6746 8.97841C77.1225 8.97841 77.5333 8.87108 77.9035 8.65272C78.2736 8.43435 78.5697 8.13087 78.7844 7.73115C78.9991 7.33143 79.1101 6.8688 79.1101 6.33954C79.1064 5.80659 78.9991 5.34395 78.7844 4.94423Z" fill="white"/>
<path d="M86.4945 3.66736C86.9905 4.1522 87.2385 4.85171 87.2385 5.77328V9.60759H86.4131V5.8658C86.4131 5.15519 86.2354 4.61114 85.8801 4.23363C85.5247 3.85612 85.0399 3.67106 84.4217 3.67106C83.7888 3.67106 83.2854 3.87092 82.9115 4.27064C82.5377 4.67035 82.3489 5.25883 82.3489 6.03235V9.60389H81.5087V3.06038H82.3489V4.17441C82.5562 3.77469 82.856 3.4675 83.2484 3.25654C83.6407 3.04558 84.0849 2.93825 84.5809 2.93825C85.3582 2.94195 85.9985 3.18252 86.4945 3.66736Z" fill="white"/>
<path d="M89.1484 9.18197C88.6709 8.83407 88.4081 8.36033 88.3526 7.76075H89.215C89.2558 8.12716 89.4297 8.42695 89.7369 8.65271C90.0442 8.88218 90.4587 8.99321 90.9769 8.99321C91.4322 8.99321 91.7912 8.88588 92.0503 8.67122C92.3095 8.45656 92.439 8.18638 92.439 7.86808C92.439 7.64602 92.365 7.46097 92.2243 7.31662C92.0837 7.17228 91.8986 7.05755 91.6802 6.97612C91.4581 6.891 91.162 6.80217 90.7882 6.70594C90.2996 6.57641 89.9035 6.45057 89.6 6.32103C89.2965 6.19149 89.0374 6.00274 88.8264 5.75107C88.6154 5.49939 88.5081 5.16259 88.5081 4.73697C88.5081 4.41868 88.6043 4.12259 88.7968 3.84871C88.9893 3.57853 89.2595 3.36017 89.6111 3.20102C89.9627 3.04187 90.3625 2.96045 90.8104 2.96045C91.5136 2.96045 92.08 3.1381 92.513 3.49341C92.9461 3.84871 93.1756 4.33725 93.2089 4.96274H92.3687C92.3465 4.57782 92.1947 4.27063 91.9208 4.03376C91.6469 3.7969 91.2656 3.67846 90.7882 3.67846C90.3662 3.67846 90.022 3.77839 89.7555 3.97825C89.4926 4.17811 89.3594 4.42608 89.3594 4.72217C89.3594 4.97754 89.4371 5.1885 89.5926 5.35135C89.748 5.5142 89.9405 5.64373 90.1737 5.73626C90.4069 5.82879 90.7178 5.92872 91.1102 6.04345C91.5803 6.17299 91.9578 6.29512 92.2354 6.41356C92.5167 6.53199 92.7536 6.70965 92.9535 6.94281C93.1534 7.17598 93.257 7.48317 93.2644 7.86438C93.2644 8.21599 93.1682 8.53058 92.9757 8.80446C92.7832 9.08204 92.5167 9.2967 92.1725 9.45955C91.8283 9.6224 91.4322 9.70012 90.9843 9.70012C90.2403 9.70382 89.6259 9.52987 89.1484 9.18197Z" fill="white"/>
<path d="M97.0695 3.76729H95.5482V9.6076H94.708V3.76729H93.7974V3.06038H94.708V2.60515C94.708 1.89454 94.8893 1.36899 95.2521 1.03589C95.6148 0.702795 96.2071 0.532545 97.0214 0.532545V1.25055C96.4773 1.25055 96.096 1.35419 95.8776 1.56145C95.6592 1.76871 95.5482 2.11661 95.5482 2.60515V3.06038H97.0695V3.76729Z" fill="white"/>
<path d="M99.2348 9.2893C98.7425 9.01172 98.3539 8.62311 98.0726 8.11606C97.7876 7.60901 97.6469 7.01314 97.6469 6.33584C97.6469 5.65484 97.7913 5.06267 98.08 4.55562C98.3687 4.04857 98.7573 3.65626 99.2533 3.38238C99.7493 3.1085 100.305 2.96786 100.919 2.96786C101.533 2.96786 102.092 3.1048 102.592 3.38238C103.092 3.65996 103.484 4.04857 103.769 4.55562C104.054 5.06267 104.195 5.65854 104.195 6.33584C104.195 7.00574 104.05 7.59791 103.762 8.10866C103.473 8.61941 103.077 9.01542 102.574 9.2893C102.07 9.56689 101.511 9.70383 100.893 9.70383C100.279 9.70383 99.7271 9.56689 99.2348 9.2893ZM102.092 8.67863C102.459 8.48247 102.759 8.18638 102.984 7.79037C103.214 7.39435 103.325 6.90951 103.325 6.33214C103.325 5.75847 103.214 5.26993 102.988 4.87391C102.762 4.4779 102.47 4.18181 102.1 3.98565C101.733 3.7895 101.334 3.69327 100.9 3.69327C100.467 3.69327 100.068 3.7895 99.7012 3.98565C99.3348 4.18181 99.0386 4.4779 98.8203 4.87391C98.6019 5.26993 98.4908 5.75477 98.4908 6.33214C98.4908 6.90951 98.6019 7.39435 98.8203 7.79037C99.0386 8.18638 99.3311 8.48247 99.6975 8.67863C100.06 8.87478 100.46 8.97101 100.889 8.97101C101.326 8.97101 101.726 8.87478 102.092 8.67863Z" fill="white"/>
<path d="M107.052 3.27505C107.434 3.05298 107.896 2.93825 108.448 2.93825V3.8117H108.218C107.611 3.8117 107.123 3.97455 106.756 4.30395C106.39 4.63334 106.205 5.1774 106.205 5.94723V9.60389H105.364V3.06038H106.205V4.22252C106.39 3.8154 106.671 3.50081 107.052 3.27505Z" fill="white"/>
<path d="M119.019 3.66736C119.504 4.1522 119.745 4.85171 119.745 5.77328V9.60759H118.915V5.8658C118.915 5.15519 118.745 4.61114 118.401 4.23363C118.057 3.85612 117.59 3.67106 116.998 3.67106C116.384 3.67106 115.891 3.87462 115.521 4.28174C115.155 4.68886 114.97 5.28103 114.97 6.05456V9.60389H114.144V5.8658C114.144 5.15519 113.974 4.61114 113.63 4.23363C113.286 3.85612 112.815 3.67106 112.216 3.67106C111.601 3.67106 111.109 3.87462 110.743 4.28174C110.376 4.68886 110.191 5.28103 110.191 6.05456V9.60389H109.351V3.06038H110.191V4.18551C110.398 3.77839 110.695 3.4675 111.079 3.25654C111.464 3.04558 111.89 2.93825 112.36 2.93825C112.927 2.93825 113.426 3.07519 113.856 3.34537C114.281 3.61555 114.592 4.01526 114.785 4.54452C114.959 4.02637 115.262 3.62665 115.692 3.35277C116.121 3.07519 116.606 2.93825 117.15 2.93825C117.909 2.94195 118.534 3.18252 119.019 3.66736Z" fill="white"/>
<path d="M121.262 4.55562C121.529 4.04857 121.902 3.65626 122.376 3.38238C122.85 3.1085 123.39 2.96786 123.99 2.96786C124.616 2.96786 125.152 3.1122 125.604 3.40088C126.055 3.68957 126.381 4.05598 126.581 4.50381V3.06038H127.418V9.6076H126.577V8.15677C126.37 8.6046 126.041 8.97471 125.589 9.2671C125.138 9.55948 124.601 9.70383 123.975 9.70383C123.383 9.70383 122.85 9.56318 122.376 9.2856C121.902 9.00802 121.529 8.6083 121.262 8.09756C120.996 7.58681 120.859 6.99463 120.859 6.32474C120.859 5.65114 120.992 5.06267 121.262 4.55562ZM126.255 4.94423C126.041 4.54452 125.745 4.23733 125.374 4.02267C125.004 3.808 124.593 3.70067 124.146 3.70067C123.683 3.70067 123.265 3.8043 122.898 4.01156C122.532 4.21882 122.239 4.52231 122.028 4.91833C121.817 5.31434 121.71 5.78438 121.71 6.32844C121.71 6.8651 121.817 7.33513 122.028 7.73855C122.239 8.14197 122.532 8.44916 122.898 8.66012C123.265 8.87108 123.683 8.97841 124.146 8.97841C124.593 8.97841 125.004 8.87108 125.374 8.65272C125.745 8.43435 126.041 8.13087 126.255 7.73115C126.47 7.33143 126.581 6.8688 126.581 6.33954C126.581 5.80659 126.474 5.34395 126.255 4.94423Z" fill="white"/>
<path d="M128.684 9.48916C128.569 9.37073 128.51 9.22268 128.51 9.04503C128.51 8.86738 128.569 8.72304 128.684 8.6083C128.798 8.49357 128.946 8.43435 129.12 8.43435C129.287 8.43435 129.431 8.49357 129.546 8.6083C129.661 8.72304 129.72 8.87108 129.72 9.04503C129.72 9.21898 129.661 9.36703 129.546 9.48916C129.431 9.6076 129.287 9.67051 129.12 9.67051C128.946 9.66681 128.798 9.6076 128.684 9.48916Z" fill="white"/>
</svg>
