<svg width="20" height="20" viewBox="0 0 20 20" fill="none" xmlns="http://www.w3.org/2000/svg">
<path fill-rule="evenodd" clip-rule="evenodd" d="M10.0031 8.75335C9.31669 8.75335 8.75507 9.31731 8.75507 10.0066C8.75507 10.6959 9.31669 11.2598 10.0031 11.2598C10.6895 11.2598 11.2512 10.6959 11.2512 10.0066C11.2512 9.31731 10.6895 8.75335 10.0031 8.75335ZM19.9875 9.969C19.9875 9.95647 19.9875 9.95647 19.9875 9.94393V9.9314C19.9875 9.91887 19.9875 9.91887 19.9875 9.90634C19.9875 9.8938 19.9875 9.8938 19.9875 9.88127V9.88127C19.9626 9.70582 19.8877 9.55543 19.7754 9.4301C19.1388 8.59043 18.3775 7.85102 17.6037 7.17426C15.9438 5.70797 14.0468 4.47979 11.9501 3.99102C10.727 3.69025 9.51638 3.67771 8.29329 3.91583C7.18253 4.14141 6.12168 4.59258 5.11076 5.15654C3.5507 6.04634 2.11544 7.26199 0.867395 8.62803C0.642746 8.89121 0.418097 9.14186 0.205928 9.41757C-0.0686428 9.78101 -0.0686428 10.2196 0.205928 10.5831C0.842434 11.4228 1.60374 12.1622 2.37754 12.8389C4.03744 14.3052 5.93448 15.5334 8.0312 16.0222C9.24181 16.3104 10.4649 16.3229 11.688 16.0723C12.7988 15.8467 13.8596 15.3955 14.8705 14.8316C16.4306 13.9418 17.8658 12.7261 19.1139 11.3601C19.3385 11.1094 19.5757 10.8463 19.7878 10.5706C19.9002 10.4452 19.975 10.2823 20 10.1194V10.1194C20 10.1069 20 10.1069 20 10.0943C20 10.0818 20 10.0818 20 10.0693V10.0567C20 10.0442 20 10.0442 20 10.0317C20 10.0191 20 10.0066 20 9.99406C20 9.98153 19.9875 9.98153 19.9875 9.969ZM10.0031 13.7663C7.93136 13.7663 6.25897 12.087 6.25897 10.0066C6.25897 7.92621 7.93136 6.24686 10.0031 6.24686C12.0749 6.24686 13.7473 7.92621 13.7473 10.0066C13.7473 12.087 12.0749 13.7663 10.0031 13.7663Z" fill="#6A6D7F"/>
</svg>
